<svg width="62" height="61" viewBox="0 0 62 61" fill="none" xmlns="http://www.w3.org/2000/svg">
<path opacity="0.5" d="M61.9849 0.410504L46.8155 55.9541C46.7383 56.2062 46.4298 56.2819 46.2498 56.1054L36.094 46.1464L43.7044 18.3115C43.7816 18.0594 43.5502 17.8325 43.2931 17.9081L14.9081 25.3711L4.80372 15.4625C4.62374 15.286 4.70088 14.9834 4.95799 14.9078L61.5736 0.00710022C61.8307 -0.0433252 62.0621 0.183589 61.9849 0.410504Z" fill="#00B37E"/>
<path opacity="0.5" d="M36.0935 46.1459L32.1854 60.5171C32.1083 60.7693 31.7997 60.8449 31.6198 60.6684L0.0980867 29.7828C-0.0818902 29.6063 -0.00475761 29.3038 0.252352 29.2282L14.9076 25.3706L36.0935 46.1459Z" fill="#00B37E"/>
<path d="M43.7031 18.311L36.0927 46.1459L14.9069 25.3706L43.2918 17.9076C43.5489 17.832 43.7803 18.0589 43.7031 18.311Z" fill="#00B37E"/>
</svg>
